<svg width="53" height="53" viewBox="0 0 53 53" fill="none" xmlns="http://www.w3.org/2000/svg">
<path d="M26.5 0C21.2588 0 16.1353 1.5542 11.7774 4.46605C7.4195 7.37791 4.02293 11.5166 2.0172 16.3589C0.0114821 21.2011 -0.513306 26.5294 0.509202 31.6699C1.53171 36.8104 4.05559 41.5322 7.76168 45.2383C11.4678 48.9444 16.1896 51.4683 21.3301 52.4908C26.4706 53.5133 31.7989 52.9885 36.6411 50.9828C41.4834 48.9771 45.6221 45.5805 48.5339 41.2226C51.4458 36.8647 53 31.7412 53 26.5C52.9924 19.4741 50.198 12.7381 45.2299 7.77006C40.2619 2.802 33.5259 0.00759905 26.5 0V0ZM45.5955 15.4583H38.4824C36.8901 11.7682 34.7936 8.31677 32.2527 5.20283C37.8762 6.73305 42.6701 10.4177 45.5955 15.4583ZM36.4375 26.5C36.4194 28.7484 36.0651 30.9814 35.3863 33.125H17.6137C16.9349 30.9814 16.5806 28.7484 16.5625 26.5C16.5806 24.2516 16.9349 22.0186 17.6137 19.875H35.3863C36.0651 22.0186 36.4194 24.2516 36.4375 26.5ZM19.3848 37.5417H33.6153C31.7409 41.2422 29.3447 44.6544 26.5 47.6735C23.6543 44.6552 21.258 41.2429 19.3848 37.5417ZM19.3848 15.4583C21.2591 11.7578 23.6553 8.34564 26.5 5.3265C29.3457 8.34479 31.7421 11.7571 33.6153 15.4583H19.3848ZM20.7583 5.20283C18.2136 8.3161 16.1133 11.7675 14.5176 15.4583H7.40455C10.3325 10.4155 15.1308 6.73046 20.7583 5.20283ZM5.43472 19.875H13.0292C12.4567 22.0373 12.1599 24.2633 12.1458 26.5C12.1599 28.7367 12.4567 30.9627 13.0292 33.125H5.43472C4.07735 28.8126 4.07735 24.1874 5.43472 19.875ZM7.40455 37.5417H14.5176C16.1133 41.2325 18.2136 44.6839 20.7583 47.7972C15.1308 46.2695 10.3325 42.5845 7.40455 37.5417ZM32.2527 47.7972C34.7936 44.6832 36.8901 41.2318 38.4824 37.5417H45.5955C42.6701 42.5822 37.8762 46.2669 32.2527 47.7972ZM47.5653 33.125H39.9708C40.5433 30.9627 40.8401 28.7367 40.8542 26.5C40.8401 24.2633 40.5433 22.0373 39.9708 19.875H47.5609C48.9183 24.1874 48.9183 28.8126 47.5609 33.125H47.5653Z" fill="#EB455F"/>
</svg>
