<svg width="49" height="49" viewBox="0 0 49 49" fill="none" xmlns="http://www.w3.org/2000/svg">
<mask id="mask0_554_38" style="mask-type:alpha" maskUnits="userSpaceOnUse" x="0" y="0" width="49" height="49">
<path d="M48.422 24.211C48.422 37.5824 37.5824 48.422 24.211 48.422C10.8396 48.422 0 37.5824 0 24.211C0 10.8396 10.8396 0 24.211 0C37.5824 0 48.422 10.8396 48.422 24.211Z" fill="#D9D9D9"/>
</mask>
<g mask="url(#mask0_554_38)">
<path d="M25.3902 24.6083C13.6786 36.2468 0.991137 29.4577 -3.88867 24.6083V-4.1001H50.7652V24.6083C47.1867 19.7589 37.1017 12.9698 25.3902 24.6083Z" fill="#EB455F"/>
<path d="M24.0243 23.797C35.7358 12.1585 45.8858 18.9476 50.7656 23.797V52.5054H-3.88823V23.797C-0.309704 28.6464 12.3127 35.4355 24.0243 23.797Z" fill="#2B3467"/>
</g>
</svg>
