<svg width="32" height="49" viewBox="0 0 32 49" fill="none" xmlns="http://www.w3.org/2000/svg">
<path d="M32 16.035C32.0056 13.4447 31.3823 10.8917 30.1836 8.59553C28.9848 6.2993 27.2465 4.32845 25.118 2.85231C22.9895 1.37616 20.5344 0.438871 17.9637 0.120963C15.393 -0.196945 12.7835 0.114039 10.3595 1.02719C7.93553 1.94035 5.76948 3.42837 4.04749 5.3634C2.32549 7.29843 1.09905 9.62261 0.47353 12.1362C-0.151988 14.6499 -0.157874 17.2778 0.456378 19.7942C1.07063 22.3106 2.28665 24.6402 3.99996 26.583V43.035C3.99995 43.9769 4.26598 44.8996 4.76743 45.6969C5.26887 46.4943 5.98533 47.1337 6.83429 47.5417C7.68324 47.9497 8.63017 48.1095 9.56601 48.0029C10.5019 47.8963 11.3885 47.5275 12.124 46.939L15.376 44.339C15.5532 44.1975 15.7732 44.1204 16 44.1204C16.2267 44.1204 16.4468 44.1975 16.624 44.339L19.876 46.939C20.6114 47.5275 21.4981 47.8963 22.4339 48.0029C23.3698 48.1095 24.3167 47.9497 25.1656 47.5417C26.0146 47.1337 26.7311 46.4943 27.2325 45.6969C27.7339 44.8996 28 43.9769 28 43.035V26.583C30.5766 23.6734 31.9994 19.9214 32 16.035V16.035ZM16 4.03497C18.3733 4.03497 20.6934 4.73875 22.6668 6.05733C24.6402 7.37591 26.1783 9.25005 27.0865 11.4428C27.9948 13.6355 28.2324 16.0483 27.7694 18.376C27.3064 20.7038 26.1635 22.842 24.4852 24.5202C22.807 26.1985 20.6688 27.3414 18.341 27.8044C16.0133 28.2674 13.6005 28.0298 11.4078 27.1215C9.21505 26.2133 7.3409 24.6752 6.02233 22.7018C4.70375 20.7284 3.99996 18.4083 3.99996 16.035C4.00314 12.8533 5.26844 9.80294 7.51819 7.55319C9.76794 5.30344 12.8183 4.03814 16 4.03497V4.03497ZM23.434 43.931C23.2647 44.0148 23.0749 44.0481 22.8873 44.0268C22.6996 44.0055 22.5221 43.9306 22.376 43.811L19.124 41.211C18.2389 40.498 17.1365 40.1092 16 40.1092C14.8634 40.1092 13.7611 40.498 12.876 41.211L9.62596 43.811C9.47921 43.9288 9.3022 44.0028 9.11527 44.0245C8.92834 44.0462 8.73908 44.0147 8.56925 43.9336C8.39941 43.8526 8.25589 43.7253 8.15519 43.5663C8.05448 43.4073 8.00068 43.2231 7.99996 43.035V29.871C10.4279 31.2881 13.1887 32.0349 16 32.0349C18.8112 32.0349 21.572 31.2881 24 29.871V43.035C24.0022 43.223 23.9499 43.4077 23.8495 43.5667C23.7491 43.7257 23.6047 43.8522 23.434 43.931V43.931Z" fill="#EB455F"/>
</svg>
