<?xml version="1.0" encoding="UTF-8"?>
<svg id="Layer_2" data-name="Layer 2" xmlns="http://www.w3.org/2000/svg" xmlns:xlink="http://www.w3.org/1999/xlink" viewBox="0 0 1080 1080">
  <defs>
    <style>
      .cls-1, .cls-2 {
        fill: #fff4bc;
      }

      .cls-1, .cls-3, .cls-4, .cls-5 {
        stroke: #ffda40;
        stroke-miterlimit: 10;
        stroke-width: 6px;
      }

      .cls-3, .cls-6 {
        fill: #fff;
      }

      .cls-4 {
        fill: none;
      }

      .cls-7 {
        clip-path: url(#clippath-1);
      }

      .cls-8, .cls-5 {
        fill: #ffda40;
      }

      .cls-9 {
        clip-path: url(#clippath);
      }
    </style>
    <clipPath id="clippath">
      <path class="cls-3" d="M603.47,595.03c-35.41,17.25-82.01-5.52-104.09-50.85-1.78-3.65-3.34-7.34-4.69-11.04,29.95-34.32,68.29-60.96,107.44-85.6,10.04,9.06,18.85,20.61,25.46,34.18,22.09,45.33,11.29,96.06-24.12,113.31Z"/>
    </clipPath>
    <clipPath id="clippath-1">
      <path class="cls-3" d="M745.3,528.3c-20.01,14.26-57.52-4.07-83.8-40.92-13.04-18.29-20.85-37.69-22.98-54.35,21.08-5.44,42.45-9.81,63.97-13.1,20.48,17.15,38.49,38.17,53.14,62.69,4.39,20.2,1.2,37.46-10.33,45.68Z"/>
    </clipPath>
  </defs>
  <g>
    <path class="cls-2" d="M414.43,312.48c-18.24-22.89-42.03-33.01-65.48-37.76-12.4-2.52-27.26-2.15-34.56,13.29-3.44,7.27-4.41,16.54-4.99,25.45-2.21,33.93-.25,68.13,1.7,102.09"/>
    <path class="cls-8" d="M416.2,310.71c-9.96-12.45-22.75-22.37-37.24-29.02-6.66-3.06-13.59-5.5-20.68-7.37-6.29-1.66-12.78-3.17-19.31-3.27-6.06-.09-12.34,1.14-17.42,4.59-6.3,4.28-10,11.09-11.94,18.31-2.34,8.72-2.69,17.95-3.12,26.92-.46,9.74-.61,19.48-.54,29.23.14,19.44,1.15,38.86,2.25,58.27.14,2.39.27,4.78.41,7.18.18,3.2,5.19,3.22,5,0-1.08-18.83-2.16-37.66-2.54-56.52-.19-9.5-.2-19.01.06-28.51.25-8.99.5-18.09,1.69-27.01.96-7.2,2.76-15,7.8-20.51,3.81-4.17,9.08-6.34,14.44-6.81,5.99-.53,11.51.48,17.3,1.82,6.82,1.57,13.54,3.61,20.03,6.24,13.85,5.62,26.35,14.23,36.35,25.36,1.36,1.51,2.66,3.06,3.93,4.64.84,1.05,2.65.88,3.54,0,1.04-1.04.85-2.48,0-3.54h0Z"/>
  </g>
  <g>
    <path class="cls-2" d="M542.65,335.68c-29.32-43.87-74.24-68.95-118.63-66.24-3.92.24-8.07.79-11.22,3.88-5.7,5.58-5.74,16.58-5.21,25.89,1.96,34.62,4.17,69.22,6.62,103.79"/>
    <path class="cls-8" d="M544.8,334.41c-10.35-15.44-22.99-29.25-37.81-40.5-13.52-10.27-28.9-18.25-45.28-22.83-7.91-2.21-16.07-3.61-24.28-4.13-4.06-.26-8.13-.29-12.19-.09-4.47.22-9.12.7-12.81,3.49-7.01,5.3-7.68,15.44-7.56,23.51.07,5.18.49,10.36.79,15.53.33,5.71.67,11.43,1.01,17.14,1.37,22.68,2.84,45.36,4.42,68.02.2,2.81.39,5.62.59,8.44.1,1.35,1.08,2.5,2.5,2.5,1.28,0,2.6-1.15,2.5-2.5-1.56-22.09-3.03-44.18-4.39-66.28-.68-11.01-1.34-22.02-1.97-33.04-.26-4.62-.6-9.26-.41-13.89.15-3.78.57-7.83,2.25-11.27.75-1.53,1.71-2.96,3.05-4.04,1.55-1.24,3.46-1.84,5.38-2.19,3.8-.69,7.86-.61,11.72-.55,7.76.12,15.48,1.1,23.04,2.86,15.81,3.68,30.69,10.66,44,19.91,14.37,9.97,26.91,22.63,37.18,36.76,1.35,1.86,2.66,3.74,3.94,5.65,1.78,2.66,6.12.16,4.32-2.52h0Z"/>
  </g>
  <g>
    <path class="cls-2" d="M408.6,382.21c-31.82-14.5-66.39-23.17-101.4-25.44-6.53-.42-13.5-.52-19.07,2.82-9.1,5.47-10.75,17.58-10.68,28.03.24,33.75,8.5,66.93,12.26,100.49"/>
    <path class="cls-8" d="M409.86,380.05c-16-7.27-32.61-13.14-49.65-17.45-16.99-4.29-34.38-7.06-51.86-8.26-7.79-.54-16.48-.78-23.05,4.15-5.54,4.16-8.34,10.67-9.48,17.35-1.31,7.7-.93,15.61-.49,23.37.53,9.24,1.56,18.45,2.81,27.62,2.47,18.22,5.92,36.29,8.26,54.53.29,2.24.56,4.49.81,6.74.15,1.34,1.04,2.5,2.5,2.5,1.23,0,2.65-1.15,2.5-2.5-2.01-17.84-5.24-35.5-7.91-53.24-1.33-8.8-2.5-17.62-3.3-26.49-.75-8.32-1.37-16.79-.97-25.15.29-6.03,1.31-12.53,4.98-17.51,4.32-5.86,11.6-6.84,18.4-6.65,8.24.23,16.53,1.16,24.69,2.31s16.85,2.75,25.17,4.68c16.46,3.81,32.64,9.03,48.17,15.69,1.97.85,3.94,1.72,5.89,2.6,1.23.56,2.69.35,3.42-.9.63-1.07.34-2.86-.9-3.42h0Z"/>
  </g>
  <path class="cls-5" d="M570.84,383.55s.76-88.47-39.31-116.96c-40.08-28.49-14.55,58.61-42.73,82.39-28.18,23.78-95.34-54.87-124.17-35.68-28.83,19.19,14.85,91.54-2.78,108.49-17.63,16.95-102.78-26.46-127.39,3.99-24.61,30.45,62.5,132.2,108.29,117.91"/>
  <path class="cls-1" d="M820.34,606.38c-27.27,15.73-53.62,21.11-58.87,12.03s12.61-29.21,39.88-44.94c27.27-15.73,41.5-14.12,46.74-5.03s-.48,22.21-27.75,37.94Z"/>
  <path class="cls-1" d="M646.55,863.92c5.86-30.93-6.11-59.17-26.73-63.08-20.62-3.91-42.09,18-47.94,48.93-5.86,30.93,8.71,45.41,29.33,49.32,20.62,3.91,39.48-4.25,45.34-35.18Z"/>
  <path class="cls-1" d="M612.71,833.83c-125.59,30.47-245.58-19.74-280.22-162.5-34.65-142.76,42.85-267.66,168.44-298.13,55.03-13.36,110.16-6.37,157.66,17.71,15.54,7.88,30.26,17.59,43.9,29.02,20.48,17.15,38.49,38.17,53.14,62.69,13.81,23.12,24.62,49.34,31.66,78.34,34.64,142.76-48.99,242.39-174.58,272.87Z"/>
  <path class="cls-8" d="M647.62,840.2c-10.05,3.51-20.43,6.58-31.13,9.18-14.42,3.49-28.72,5.98-42.84,7.44-.93.1-1.87.19-2.81.27.21-2.32.56-4.76,1.04-7.32.59-3.14,1.35-6.18,2.24-9.11,12.75-1.41,25.65-3.7,38.59-6.84,10.76-2.61,21.2-5.72,31.29-9.33,1.78,4.77,3,10.07,3.61,15.71Z"/>
  <path class="cls-1" d="M475.01,671.23c6.77-7.16,16.05-14.74,26.94-21.66,26.57-16.88,40.85-15.88,46.48-7.03,5.62,8.86.46,22.22-26.1,39.1-12.17,7.72-24.24,13.29-34.29,16.19"/>
  <path class="cls-8" d="M809.72,596.78c.51,4.93.89,9.83,1.12,14.69-5.44,2.69-10.75,4.94-15.75,6.71-.3-12.39-1.56-25.18-3.86-38.38,3.19-2.17,6.58-4.29,10.13-6.34,1.54-.88,3.04-1.72,4.5-2.5,1.7,8.7,2.99,17.31,3.87,25.81Z"/>
  <path class="cls-4" d="M602.13,447.54c-39.15,24.64-77.49,51.28-107.44,85.6-15.5-42.25-3.75-86.42,28.81-102.28,24.81-12.09,55.11-4.53,78.63,16.68Z"/>
  <g>
    <path class="cls-6" d="M603.47,595.03c-35.41,17.25-82.01-5.52-104.09-50.85-1.78-3.65-3.34-7.34-4.69-11.04,29.95-34.32,68.29-60.96,107.44-85.6,10.04,9.06,18.85,20.61,25.46,34.18,22.09,45.33,11.29,96.06-24.12,113.31Z"/>
    <g class="cls-9">
      <ellipse class="cls-8" cx="575.37" cy="495.84" rx="40.33" ry="50.67" transform="translate(-170.84 354.11) rotate(-30)"/>
    </g>
    <path class="cls-4" d="M603.47,595.03c-35.41,17.25-82.01-5.52-104.09-50.85-1.78-3.65-3.34-7.34-4.69-11.04,29.95-34.32,68.29-60.96,107.44-85.6,10.04,9.06,18.85,20.61,25.46,34.18,22.09,45.33,11.29,96.06-24.12,113.31Z"/>
  </g>
  <path class="cls-4" d="M702.49,419.93c-21.52,3.29-42.89,7.66-63.97,13.1-2.18-16.93,1.53-31.03,11.61-38.22,2.55-1.82,5.39-3.11,8.46-3.9,15.54,7.88,30.26,17.59,43.9,29.02Z"/>
  <g>
    <path class="cls-6" d="M745.3,528.3c-20.01,14.26-57.52-4.07-83.8-40.92-13.04-18.29-20.85-37.69-22.98-54.35,21.08-5.44,42.45-9.81,63.97-13.1,20.48,17.15,38.49,38.17,53.14,62.69,4.39,20.2,1.2,37.46-10.33,45.68Z"/>
    <g class="cls-7">
      <path class="cls-8" d="M716.88,433.03c-11.17-21.74-35.14-31.79-48.64-24.85-13.5,6.94-15.39,30.19-4.22,51.93,11.17,21.74,31.18,33.73,44.68,26.79,13.5-6.94,19.35-32.13,8.17-53.87Z"/>
    </g>
    <path class="cls-4" d="M745.3,528.3c-20.01,14.26-57.52-4.07-83.8-40.92-13.04-18.29-20.85-37.69-22.98-54.35,21.08-5.44,42.45-9.81,63.97-13.1,20.48,17.15,38.49,38.17,53.14,62.69,4.39,20.2,1.2,37.46-10.33,45.68Z"/>
  </g>
  <path class="cls-8" d="M756.25,565.64c-15.88,9.63-32.22,18.49-48.97,26.52-16.62,7.97-33.63,15.11-50.95,21.4-9.84,3.57-19.78,6.87-29.8,9.89-3.07.93-1.76,5.75,1.33,4.82,17.85-5.38,35.44-11.64,52.67-18.76s34.24-15.1,50.76-23.9c9.31-4.96,18.47-10.18,27.49-15.65,2.75-1.67.24-5.99-2.52-4.32h0Z"/>
  <path class="cls-8" d="M732.66,596.61c-17.61,9.49-35.69,18.11-54.19,25.72-1.25.51-2.14,1.66-1.75,3.08.32,1.18,1.82,2.26,3.08,1.75,18.9-7.78,37.39-16.53,55.38-26.23,2.83-1.53.31-5.84-2.52-4.32h0Z"/>
  <path class="cls-1" d="M707.89,824.72c3.85-31.24-9.92-58.65-30.75-61.22-20.83-2.56-40.83,20.69-44.68,51.93-3.85,31.24,11.63,44.76,32.46,47.32,20.83,2.56,39.12-6.79,42.97-38.03Z"/>
</svg>