<?xml version="1.0" encoding="UTF-8"?>
<svg id="Layer_2" data-name="Layer 2" xmlns="http://www.w3.org/2000/svg" xmlns:xlink="http://www.w3.org/1999/xlink" viewBox="0 0 1080 1080">
  <defs>
    <style>
      .cls-1, .cls-2, .cls-3, .cls-4 {
        stroke: #f66;
        stroke-miterlimit: 10;
        stroke-width: 6px;
      }

      .cls-1, .cls-5 {
        fill: #f66;
      }

      .cls-6 {
        clip-path: url(#clippath-1);
      }

      .cls-7, .cls-4 {
        fill: #fff;
      }

      .cls-2 {
        fill: #ff9797;
      }

      .cls-3 {
        fill: none;
      }

      .cls-8 {
        clip-path: url(#clippath);
      }
    </style>
    <clipPath id="clippath">
      <path class="cls-4" d="M718.58,596.89c-7.12,48.91-45.65,83.79-86.06,77.91-40.41-5.89-67.38-50.31-60.26-99.22.06-.4.11-.78.18-1.18l139.16-32.99c7.1,16.18,9.9,35.46,6.98,55.48Z"/>
    </clipPath>
    <clipPath id="clippath-1">
      <path class="cls-4" d="M380.19,547.6c-7.12,48.91,19.85,93.34,60.26,99.22,40.41,5.89,78.94-28.99,86.06-77.91.06-.4.11-.78.16-1.18l-123.96-71.31c-11.42,13.49-19.6,31.16-22.52,51.18Z"/>
    </clipPath>
  </defs>
  <g>
    <path class="cls-1" d="M451.12,411.84s-92.31,13.88-112.62-40.9c-20.31-54.78-37.67,104.65,77.03,107l35.58-66.1Z"/>
    <path class="cls-1" d="M691.16,439.34s86.78,34.39,118.95-14.37c32.17-48.76,13.03,110.45-99.23,86.81l-19.72-72.44Z"/>
  </g>
  <path class="cls-2" d="M625.21,851c-4.87-31.1-25.63-53.68-46.37-50.43-20.73,3.25-33.59,31.1-28.72,62.2,4.87,31.1,23.47,39.85,44.2,36.6,20.73-3.25,35.76-17.26,30.88-48.36Z"/>
  <path class="cls-2" d="M814.91,733.66c-8.68,5.89-22.19,1.13-39.86-24.92-2.12-3.12-4.08-6.24-5.89-9.32-32.2,92.06-118.8,139.87-220.57,139.87-117.5,0-214.78-63.73-231.46-185.73-6.84-.23-14.27-.99-21.97-2.34-31.01-5.4-40.9-15.76-39.1-26.1,1.8-10.34,14.61-16.74,45.62-11.34,4.48.78,8.8,1.72,12.92,2.77-.01-.42-.01-.84-.01-1.26,0-146.91,104.77-250,234-250s234,103.09,234,250c0,14.73-1.05,28.75-3.08,42.07,8.58,6.62,18.24,17.14,26.99,30.05,17.67,26.05,17.1,40.36,8.41,46.25Z"/>
  <path class="cls-2" d="M493.97,847.98c9.01-30.16.02-59.48-20.09-65.49-20.11-6.01-43.72,13.57-52.73,43.73-9.01,30.16,3.99,46.07,24.1,52.08,20.11,6.01,39.71-.16,48.72-30.32Z"/>
  <path class="cls-5" d="M624.31,846.13c-23.62,6.01-48.82,9.1-75.02,9.15-.38-5.54-.19-10.92.49-16,24.27-.08,47.67-2.89,69.65-8.39,2.05,4.7,3.71,9.82,4.88,15.24Z"/>
  <path class="cls-2" d="M485.85,432.37s-35.02,61.29,40,96.91c6.54,3.11,12.93-2.02,9.33-8.31-5.77-10.1-5.09-46.73,14.41-62.67,0,0,8.48,45.79,34.93,56.89,19.28,8.09,48.91,4.6,60.89.89,31.56-9.78,9.61-19.53.44-21.78-17.92-4.4-44.42-24.88-28-42.67"/>
  <g>
    <g>
      <path class="cls-7" d="M718.58,596.89c-7.12,48.91-45.65,83.79-86.06,77.91-40.41-5.89-67.38-50.31-60.26-99.22.06-.4.11-.78.18-1.18l139.16-32.99c7.1,16.18,9.9,35.46,6.98,55.48Z"/>
      <g class="cls-8">
        <ellipse class="cls-5" cx="626.14" cy="571.94" rx="55.62" ry="34.18" transform="translate(-30.09 1109.1) rotate(-81.71)"/>
      </g>
      <path class="cls-3" d="M718.58,596.89c-7.12,48.91-45.65,83.79-86.06,77.91-40.41-5.89-67.38-50.31-60.26-99.22.06-.4.11-.78.18-1.18l139.16-32.99c7.1,16.18,9.9,35.46,6.98,55.48Z"/>
    </g>
    <g>
      <path class="cls-7" d="M380.19,547.6c-7.12,48.91,19.85,93.34,60.26,99.22,40.41,5.89,78.94-28.99,86.06-77.91.06-.4.11-.78.16-1.18l-123.96-71.31c-11.42,13.49-19.6,31.16-22.52,51.18Z"/>
      <g class="cls-6">
        <ellipse class="cls-5" cx="445.8" cy="545.66" rx="55.62" ry="34.18" transform="translate(-158.42 908.15) rotate(-81.71)"/>
      </g>
      <path class="cls-3" d="M380.19,547.6c-7.12,48.91,19.85,93.34,60.26,99.22,40.41,5.89,78.94-28.99,86.06-77.91.06-.4.11-.78.16-1.18l-123.96-71.31c-11.42,13.49-19.6,31.16-22.52,51.18Z"/>
    </g>
  </g>
  <path class="cls-5" d="M569.59,721.51c-2.21,15.18-16.29,21.07-39.74,17.66s-47.89-17.76-45.68-32.94c2.21-15.18,21.75-17.62,45.21-14.21,23.45,3.42,42.42,14.31,40.21,29.49Z"/>
</svg>