<?xml version="1.0" encoding="UTF-8"?>
<svg id="Layer_2" data-name="Layer 2" xmlns="http://www.w3.org/2000/svg" xmlns:xlink="http://www.w3.org/1999/xlink" viewBox="0 0 1080 1080">
  <defs>
    <style>
      .cls-1, .cls-2, .cls-3, .cls-4 {
        stroke: #64dbff;
        stroke-width: 6px;
      }

      .cls-1, .cls-3 {
        fill: none;
      }

      .cls-1, .cls-4 {
        stroke-linecap: round;
        stroke-linejoin: round;
      }

      .cls-2, .cls-5, .cls-4 {
        fill: #fff;
      }

      .cls-2, .cls-3 {
        stroke-miterlimit: 10;
      }

      .cls-6 {
        clip-path: url(#clippath-1);
      }

      .cls-7 {
        clip-path: url(#clippath-2);
      }

      .cls-8 {
        fill: #bdecff;
      }

      .cls-9 {
        fill: #64dbff;
      }

      .cls-10 {
        clip-path: url(#clippath);
      }
    </style>
    <clipPath id="clippath">
      <path class="cls-2" d="M516.52,611.71c0,24.76-6.41,43.31-17.08,56.31-16.03,6.33-35.81,10.08-57.2,10.08s-41.19-3.75-57.22-10.09c-10.66-13.01-17.07-31.54-17.07-56.3,0-7.2.54-14.03,1.57-20.47,7.05-44,36.93-69.64,72.72-69.64s65.66,25.65,72.7,69.64c1.04,6.44,1.58,13.28,1.58,20.47Z"/>
    </clipPath>
    <clipPath id="clippath-1">
      <path class="cls-2" d="M563.48,611.71c0,24.76,6.41,43.31,17.08,56.31,16.03,6.33,35.81,10.08,57.2,10.08s41.19-3.75,57.22-10.09c10.66-13.01,17.07-31.54,17.07-56.3,0-7.2-.54-14.03-1.57-20.47-7.05-44-36.93-69.64-72.72-69.64s-65.66,25.65-72.7,69.64c-1.04,6.44-1.58,13.28-1.58,20.47Z"/>
    </clipPath>
    <clipPath id="clippath-2">
      <path class="cls-2" d="M517.75,611.71c0,24.76-6.41,43.31-17.08,56.31-16.03,6.33-35.81,10.08-57.2,10.08s-41.19-3.75-57.22-10.09c-10.66-13.01-17.07-31.54-17.07-56.3,0-7.2.54-14.03,1.57-20.47,7.05-44,36.93-69.64,72.72-69.64s65.66,25.65,72.7,69.64c1.04,6.44,1.58,13.28,1.58,20.47Z"/>
    </clipPath>
  </defs>
  <g>
    <g>
      <path class="cls-4" d="M780.21,410.16c7.4-35.77,11.92-83.34-1.78-86.17-13.7-2.84-38.15,41.31-45.55,77.08-7.4,35.77-7.55,76.31,6.15,79.15,13.7,2.84,33.78-34.28,41.18-70.05Z"/>
      <path class="cls-9" d="M747.9,542.68c-2.36-21.56-4.41-43.2-4.61-64.91-.19-21.36,1.39-42.87,6.76-63.6,2.96-11.42,7.07-22.52,12.53-32.98,1.49-2.85-2.83-5.38-4.32-2.52-10.03,19.21-15.54,40.29-18.11,61.73-2.61,21.77-2.22,43.81-.69,65.64.86,12.24,2.09,24.45,3.42,36.64.15,1.34,1.04,2.5,2.5,2.5,1.24,0,2.65-1.15,2.5-2.5h0Z"/>
    </g>
    <g>
      <path class="cls-4" d="M299.79,410.16c-7.4-35.77-11.92-83.34,1.78-86.17,13.7-2.84,38.15,41.31,45.55,77.08,7.4,35.77,7.55,76.31-6.15,79.15-13.7,2.84-33.78-34.28-41.18-70.05Z"/>
      <path class="cls-9" d="M337.1,542.68c2.38-21.78,4.45-43.63,4.61-65.56.16-21.71-1.55-43.63-7.05-64.68-3.06-11.69-7.34-23.06-12.93-33.77-1.49-2.85-5.81-.33-4.32,2.52,9.76,18.69,15.15,39.38,17.55,60.26,2.48,21.58,2.06,43.39.53,65.02-.86,12.09-2.08,24.16-3.39,36.21-.15,1.34,1.25,2.5,2.5,2.5,1.47,0,2.35-1.15,2.5-2.5h0Z"/>
    </g>
  </g>
  <g>
    <g>
      <path class="cls-8" d="M491.25,903c-26.06,0-41-16.77-41-46,0-33.08,18.39-60,41-60s41,26.92,41,60c0,29.23-14.94,46-41,46Z"/>
      <path class="cls-9" d="M491.25,800c20.99,0,38,25.52,38,57s-17.01,43-38,43-38-11.52-38-43,17.01-57,38-57M491.25,794c-12.22,0-23.54,6.88-31.86,19.37-7.83,11.74-12.14,27.24-12.14,43.63s4.34,29.08,12.91,37.57c7.55,7.48,18.3,11.43,31.09,11.43s23.55-3.95,31.09-11.43c8.56-8.49,12.91-21.13,12.91-37.57s-4.31-31.89-12.14-43.63c-8.33-12.49-19.64-19.37-31.86-19.37h0Z"/>
    </g>
    <g>
      <path class="cls-8" d="M588.75,903c-26.06,0-41-16.77-41-46,0-33.08,18.39-60,41-60s41,26.92,41,60c0,29.23-14.94,46-41,46Z"/>
      <path class="cls-9" d="M588.75,800c20.99,0,38,25.52,38,57s-17.01,43-38,43-38-11.52-38-43,17.01-57,38-57M588.75,794c-12.22,0-23.54,6.88-31.86,19.37-7.83,11.74-12.14,27.24-12.14,43.63s4.34,29.08,12.91,37.57c7.55,7.48,18.3,11.43,31.09,11.43s23.55-3.95,31.09-11.43c8.56-8.49,12.91-21.13,12.91-37.57s-4.31-31.89-12.14-43.63c-8.33-12.49-19.64-19.37-31.86-19.37h0Z"/>
    </g>
  </g>
  <path class="cls-9" d="M777.68,812.48l-237.68.52-190.64-.42c-.86-9.83-2.46-19.78-3.72-26.73-3.07,9.72-12.68,26.18-12.98,26.69h-.01s-30.33-.06-30.33-.06c0,0,15.01-34.27,27-87.56,12.01-53.3,9-106.59,9-106.59l201.68,6.34,201.68-6.34s-3.01,53.29,9,106.59c11.99,53.29,27,87.56,27,87.56Z"/>
  <g>
    <path class="cls-8" d="M540,853c-56.83,0-108.08-14.71-148.21-42.54-42-29.13-70.44-72.02-82.31-124.1-10.97-5.53-24.73-19.26-36.3-36.33-8.56-12.62-13.47-23.38-14.58-31.98-1.35-10.42,3.05-15.77,6.97-18.43,2.71-1.84,5.73-2.77,8.97-2.77,8.66,0,18.26,6.6,28.6,19.65,2.11-67.21,26.57-128.31,69.41-172.85,43.81-45.56,103.27-70.64,167.45-70.64s123.64,25.09,167.45,70.64c42.83,44.54,67.3,105.64,69.41,172.85,10.34-13.05,19.94-19.65,28.6-19.65,3.24,0,6.26.93,8.97,2.78,3.92,2.66,8.32,8.02,6.97,18.43-1.11,8.6-6.02,19.36-14.58,31.98-11.57,17.06-25.32,30.8-36.29,36.32-11.87,52.08-40.31,94.97-82.31,124.1-40.12,27.83-91.37,42.54-148.21,42.54Z"/>
    <path class="cls-9" d="M540,376c129.05,0,233.71,102.8,234,249.39,12.81-18.42,23.38-25.55,31.46-25.55,2.71,0,5.15.81,7.28,2.26,8.69,5.89,9.26,20.2-8.41,46.25-12.17,17.95-26.1,31.29-36.42,35.93-24.12,108.95-117.01,165.72-227.91,165.72s-203.79-56.77-227.91-165.72c-10.32-4.64-24.25-17.98-36.42-35.93-17.67-26.05-17.1-40.36-8.41-46.25,2.14-1.45,4.57-2.26,7.28-2.26,8.07,0,18.64,7.12,31.46,25.55.29-146.59,104.95-249.39,234-249.39M540,370c-65,0-125.23,25.42-169.61,71.56-22.11,23-39.42,50.19-51.44,80.82-10.59,26.99-16.78,55.97-18.48,86.36-9.13-9.91-17.81-14.91-25.93-14.91-3.85,0-7.44,1.11-10.65,3.29-3.78,2.56-9.89,8.74-8.26,21.3,1.17,9.07,6.25,20.27,15.07,33.28,11.58,17.08,24.88,30.51,36.16,36.66,6.13,26.19,16.36,50.1,30.43,71.1,13.99,20.88,31.75,38.86,52.79,53.45,40.63,28.18,92.47,43.07,149.92,43.07s109.29-14.89,149.92-43.07c21.04-14.59,38.8-32.57,52.79-53.45,14.07-21,24.3-44.91,30.43-71.1,11.29-6.15,24.58-19.58,36.17-36.66,8.83-13.02,13.9-24.21,15.07-33.28,1.63-12.56-4.48-18.74-8.26-21.3-3.22-2.18-6.8-3.29-10.65-3.29-8.12,0-16.81,5-25.93,14.91-1.69-30.39-7.89-59.38-18.48-86.36-12.02-30.63-29.33-57.83-51.44-80.82-44.38-46.15-104.61-71.56-169.61-71.56h0Z"/>
  </g>
  <g>
    <path class="cls-9" d="M529.25,857c0,2.76-.13,5.36-.39,7.81-26.83-.87-52.14-4.94-75.51-11.94.25-5.26.98-10.32,2.11-15.09,22.96,7.11,47.67,11.14,73.48,12.02.21,2.36.31,4.76.31,7.2Z"/>
    <path class="cls-9" d="M626.65,852.87c-23.37,7-48.68,11.07-75.51,11.94-.26-2.45-.39-5.05-.39-7.81,0-2.44.1-4.84.31-7.2,25.81-.88,50.52-4.91,73.48-12.02,1.13,4.77,1.86,9.83,2.11,15.09Z"/>
  </g>
  <path class="cls-1" d="M666.51,444.47c2.17,12.02,4.17,24.37,5.98,37.04-32.51-6.56-69.83-10.79-109.83-11.96l-8.32-36.06-.15-.66c-1.03-4.47-6.62-4.04-7.13.55h0s-3.98,35.85-3.98,35.85c-1.03-.01-2.05-.01-3.08-.01-48.54,0-93.91,4.5-132.49,12.29,1.81-12.67,3.81-25.02,5.98-37.04"/>
  <g>
    <g>
      <g>
        <path class="cls-5" d="M516.52,611.71c0,24.76-6.41,43.31-17.08,56.31-16.03,6.33-35.81,10.08-57.2,10.08s-41.19-3.75-57.22-10.09c-10.66-13.01-17.07-31.54-17.07-56.3,0-7.2.54-14.03,1.57-20.47,7.05-44,36.93-69.64,72.72-69.64s65.66,25.65,72.7,69.64c1.04,6.44,1.58,13.28,1.58,20.47Z"/>
        <g class="cls-10">
          <ellipse class="cls-9" cx="449.7" cy="623.74" rx="47" ry="56"/>
        </g>
        <path class="cls-3" d="M516.52,611.71c0,24.76-6.41,43.31-17.08,56.31-16.03,6.33-35.81,10.08-57.2,10.08s-41.19-3.75-57.22-10.09c-10.66-13.01-17.07-31.54-17.07-56.3,0-7.2.54-14.03,1.57-20.47,7.05-44,36.93-69.64,72.72-69.64s65.66,25.65,72.7,69.64c1.04,6.44,1.58,13.28,1.58,20.47Z"/>
      </g>
      <path class="cls-9" d="M380.41,558.03c-8.69-3.52-14.05-13.11-13.18-22.31.13-1.35-1.24-2.5-2.5-2.5-1.46,0-2.37,1.15-2.5,2.5-1.09,11.58,6.2,22.81,16.85,27.13,1.25.51,2.75-.55,3.08-1.75.39-1.43-.49-2.57-1.75-3.08h0Z"/>
      <path class="cls-9" d="M374.77,566.14c-4.42,1.97-9.53-1.97-12.43-4.95-3.76-3.86-6.35-8.7-8.06-13.77-.43-1.28-1.72-2.12-3.08-1.75-1.25.34-2.18,1.79-1.75,3.08,2.1,6.24,5.33,12.16,10.12,16.75s11.31,7.82,17.71,4.97c1.23-.55,1.53-2.35.9-3.42-.74-1.27-2.18-1.45-3.42-.9h0Z"/>
    </g>
    <g>
      <g>
        <path class="cls-5" d="M563.48,611.71c0,24.76,6.41,43.31,17.08,56.31,16.03,6.33,35.81,10.08,57.2,10.08s41.19-3.75,57.22-10.09c10.66-13.01,17.07-31.54,17.07-56.3,0-7.2-.54-14.03-1.57-20.47-7.05-44-36.93-69.64-72.72-69.64s-65.66,25.65-72.7,69.64c-1.04,6.44-1.58,13.28-1.58,20.47Z"/>
        <g class="cls-6">
          <ellipse class="cls-9" cx="630.3" cy="574.74" rx="47" ry="56"/>
        </g>
        <path class="cls-3" d="M563.48,611.71c0,24.76,6.41,43.31,17.08,56.31,16.03,6.33,35.81,10.08,57.2,10.08s41.19-3.75,57.22-10.09c10.66-13.01,17.07-31.54,17.07-56.3,0-7.2-.54-14.03-1.57-20.47-7.05-44-36.93-69.64-72.72-69.64s-65.66,25.65-72.7,69.64c-1.04,6.44-1.58,13.28-1.58,20.47Z"/>
      </g>
      <path class="cls-9" d="M700.92,562.85c10.65-4.31,17.94-15.55,16.85-27.13-.13-1.34-1.06-2.5-2.5-2.5-1.25,0-2.63,1.15-2.5,2.5.87,9.19-4.49,18.79-13.18,22.31-1.25.51-2.13,1.67-1.75,3.08.33,1.19,1.82,2.26,3.08,1.75h0Z"/>
      <path class="cls-9" d="M702.71,570.46c6.41,2.85,13.01-.46,17.71-4.97s8.02-10.51,10.12-16.75c1.03-3.06-3.8-4.37-4.82-1.33-1.71,5.08-4.3,9.91-8.06,13.77-2.9,2.98-8.01,6.92-12.43,4.95-1.23-.55-2.69-.36-3.42.9-.62,1.07-.34,2.87.9,3.42h0Z"/>
    </g>
    <g>
      <g>
        <path class="cls-5" d="M517.75,611.71c0,24.76-6.41,43.31-17.08,56.31-16.03,6.33-35.81,10.08-57.2,10.08s-41.19-3.75-57.22-10.09c-10.66-13.01-17.07-31.54-17.07-56.3,0-7.2.54-14.03,1.57-20.47,7.05-44,36.93-69.64,72.72-69.64s65.66,25.65,72.7,69.64c1.04,6.44,1.58,13.28,1.58,20.47Z"/>
        <g class="cls-7">
          <ellipse class="cls-9" cx="450.93" cy="574.74" rx="47" ry="56"/>
        </g>
        <path class="cls-3" d="M517.75,611.71c0,24.76-6.41,43.31-17.08,56.31-16.03,6.33-35.81,10.08-57.2,10.08s-41.19-3.75-57.22-10.09c-10.66-13.01-17.07-31.54-17.07-56.3,0-7.2.54-14.03,1.57-20.47,7.05-44,36.93-69.64,72.72-69.64s65.66,25.65,72.7,69.64c1.04,6.44,1.58,13.28,1.58,20.47Z"/>
      </g>
      <path class="cls-9" d="M381.64,558.03c-8.69-3.52-14.05-13.11-13.18-22.31.13-1.35-1.24-2.5-2.5-2.5-1.46,0-2.37,1.15-2.5,2.5-1.09,11.58,6.2,22.81,16.85,27.13,1.25.51,2.75-.55,3.08-1.75.39-1.43-.49-2.57-1.75-3.08h0Z"/>
      <path class="cls-9" d="M376,566.14c-4.42,1.97-9.53-1.97-12.43-4.95-3.76-3.86-6.35-8.7-8.06-13.77-.43-1.28-1.72-2.12-3.08-1.75-1.25.34-2.18,1.79-1.75,3.08,2.1,6.24,5.33,12.16,10.12,16.75s11.31,7.82,17.71,4.97c1.23-.55,1.53-2.35.9-3.42-.74-1.27-2.18-1.45-3.42-.9h0Z"/>
    </g>
  </g>
  <path class="cls-9" d="M563.48,732.16c0,15.83-10.51,28.67-23.48,28.67s-23.48-12.83-23.48-28.67,10.51-19,23.48-19,23.48,3.17,23.48,19Z"/>
</svg>